<svg width="500" height="245" viewBox="0 0 500 245" fill="none" xmlns="http://www.w3.org/2000/svg">
<path d="M49.5828 138.861L109.601 88.098L181.959 97.0727L239.173 138.861L304.52 131.85L360.892 73.2336H426.239" stroke="#FFC9C9" stroke-width="2" stroke-linecap="round" stroke-linejoin="round"/>
<line x1="35.5591" y1="171.455" x2="499.438" y2="171.455" stroke="#DADADA" stroke-dasharray="4 4"/>
<line x1="35.5591" y1="130.508" x2="499.438" y2="130.508" stroke="#DADADA" stroke-dasharray="4 4"/>
<line x1="35.5591" y1="89.561" x2="499.438" y2="89.5611" stroke="#DADADA" stroke-dasharray="4 4"/>
<line x1="35.5591" y1="109.193" x2="499.438" y2="109.193" stroke="#A90909" stroke-dasharray="4 4"/>
<line x1="35.5591" y1="108.193" x2="499.438" y2="108.193" stroke="#017EFA" stroke-width="3" stroke-dasharray="4 4"/>
<line x1="35.5591" y1="48.614" x2="499.438" y2="48.6141" stroke="#DADADA" stroke-dasharray="4 4"/>
<line x1="35.5593" y1="7.66699" x2="499.439" y2="7.66703" stroke="#DADADA" stroke-dasharray="4 4"/>
<path d="M0.432 11V10.088L3.396 7.064C4.188 6.272 4.584 5.592 4.584 5.024C4.584 4.552 4.44 4.184 4.152 3.92C3.864 3.656 3.512 3.524 3.096 3.524C2.304 3.524 1.728 3.9 1.368 4.652L0.432 4.1C0.696 3.556 1.06 3.144 1.524 2.864C1.996 2.584 2.516 2.444 3.084 2.444C3.788 2.444 4.4 2.676 4.92 3.14C5.44 3.604 5.7 4.228 5.7 5.012C5.7 5.86 5.2 6.784 4.2 7.784L2.052 9.92H5.856V11H0.432ZM7.78013 11.132C7.56413 11.132 7.38013 11.056 7.22813 10.904C7.07613 10.752 7.00013 10.568 7.00013 10.352C7.00013 10.136 7.07613 9.952 7.22813 9.8C7.38013 9.648 7.56413 9.572 7.78013 9.572C8.00413 9.572 8.18813 9.648 8.33213 9.8C8.48413 9.952 8.56013 10.136 8.56013 10.352C8.56013 10.568 8.48413 10.752 8.33213 10.904C8.18813 11.056 8.00413 11.132 7.78013 11.132ZM12.4741 5.504C13.3141 5.504 14.0061 5.768 14.5501 6.296C15.0941 6.816 15.3661 7.492 15.3661 8.324C15.3661 9.156 15.0941 9.836 14.5501 10.364C14.0061 10.892 13.3141 11.156 12.4741 11.156C11.6261 11.156 10.9301 10.892 10.3861 10.364C9.85009 9.836 9.58209 9.156 9.58209 8.324C9.58209 7.676 9.75009 7.116 10.0861 6.644L12.7861 2.6H14.0581L12.0781 5.528C12.2541 5.512 12.3861 5.504 12.4741 5.504ZM11.1781 9.608C11.5141 9.928 11.9461 10.088 12.4741 10.088C13.0021 10.088 13.4301 9.928 13.7581 9.608C14.0941 9.28 14.2621 8.852 14.2621 8.324C14.2621 7.796 14.0941 7.372 13.7581 7.052C13.4301 6.732 13.0021 6.572 12.4741 6.572C11.9381 6.572 11.5061 6.732 11.1781 7.052C10.8501 7.372 10.6861 7.796 10.6861 8.324C10.6861 8.852 10.8501 9.28 11.1781 9.608ZM18.7088 5.876C19.5008 5.876 20.1688 6.112 20.7128 6.584C21.2648 7.048 21.5408 7.692 21.5408 8.516C21.5408 9.332 21.2608 9.976 20.7008 10.448C20.1408 10.92 19.4608 11.156 18.6608 11.156C18.0208 11.156 17.4488 11.004 16.9448 10.7C16.4408 10.388 16.0888 9.94 15.8888 9.356L16.8368 8.816C16.9488 9.224 17.1648 9.536 17.4848 9.752C17.8048 9.96 18.1968 10.064 18.6608 10.064C19.1888 10.064 19.6168 9.928 19.9448 9.656C20.2728 9.384 20.4368 9.004 20.4368 8.516C20.4368 8.028 20.2728 7.648 19.9448 7.376C19.6168 7.096 19.1968 6.956 18.6848 6.956H16.3088L16.6208 2.6H21.2168V3.644H17.6288L17.4848 5.876H18.7088Z" fill="#8E8E8E"/>
<path d="M0.432 51.3862V50.4742L3.396 47.4502C4.188 46.6582 4.584 45.9782 4.584 45.4102C4.584 44.9382 4.44 44.5702 4.152 44.3062C3.864 44.0422 3.512 43.9102 3.096 43.9102C2.304 43.9102 1.728 44.2862 1.368 45.0382L0.432 44.4862C0.696 43.9422 1.06 43.5302 1.524 43.2502C1.996 42.9702 2.516 42.8302 3.084 42.8302C3.788 42.8302 4.4 43.0622 4.92 43.5262C5.44 43.9902 5.7 44.6142 5.7 45.3982C5.7 46.2462 5.2 47.1702 4.2 48.1702L2.052 50.3062H5.856V51.3862H0.432ZM7.78013 51.5182C7.56413 51.5182 7.38013 51.4422 7.22813 51.2902C7.07613 51.1382 7.00013 50.9542 7.00013 50.7382C7.00013 50.5222 7.07613 50.3382 7.22813 50.1862C7.38013 50.0342 7.56413 49.9582 7.78013 49.9582C8.00413 49.9582 8.18813 50.0342 8.33213 50.1862C8.48413 50.3382 8.56013 50.5222 8.56013 50.7382C8.56013 50.9542 8.48413 51.1382 8.33213 51.2902C8.18813 51.4422 8.00413 51.5182 7.78013 51.5182ZM12.4741 45.8902C13.3141 45.8902 14.0061 46.1542 14.5501 46.6822C15.0941 47.2022 15.3661 47.8782 15.3661 48.7102C15.3661 49.5422 15.0941 50.2222 14.5501 50.7502C14.0061 51.2782 13.3141 51.5422 12.4741 51.5422C11.6261 51.5422 10.9301 51.2782 10.3861 50.7502C9.85009 50.2222 9.58209 49.5422 9.58209 48.7102C9.58209 48.0622 9.75009 47.5022 10.0861 47.0302L12.7861 42.9862H14.0581L12.0781 45.9142C12.2541 45.8982 12.3861 45.8902 12.4741 45.8902ZM11.1781 49.9942C11.5141 50.3142 11.9461 50.4742 12.4741 50.4742C13.0021 50.4742 13.4301 50.3142 13.7581 49.9942C14.0941 49.6662 14.2621 49.2382 14.2621 48.7102C14.2621 48.1822 14.0941 47.7582 13.7581 47.4382C13.4301 47.1182 13.0021 46.9582 12.4741 46.9582C11.9381 46.9582 11.5061 47.1182 11.1781 47.4382C10.8501 47.7582 10.6861 48.1822 10.6861 48.7102C10.6861 49.2382 10.8501 49.6662 11.1781 49.9942ZM21.8711 50.3542C21.3031 51.1462 20.5071 51.5422 19.4831 51.5422C18.4591 51.5422 17.6631 51.1462 17.0951 50.3542C16.5271 49.5622 16.2431 48.5062 16.2431 47.1862C16.2431 45.8662 16.5271 44.8102 17.0951 44.0182C17.6631 43.2262 18.4591 42.8302 19.4831 42.8302C20.5071 42.8302 21.3031 43.2262 21.8711 44.0182C22.4391 44.8102 22.7231 45.8662 22.7231 47.1862C22.7231 48.5062 22.4391 49.5622 21.8711 50.3542ZM17.9111 49.5982C18.2791 50.1662 18.8031 50.4502 19.4831 50.4502C20.1631 50.4502 20.6871 50.1662 21.0551 49.5982C21.4311 49.0302 21.6191 48.2262 21.6191 47.1862C21.6191 46.1462 21.4311 45.3422 21.0551 44.7742C20.6871 44.1982 20.1631 43.9102 19.4831 43.9102C18.8031 43.9102 18.2791 44.1942 17.9111 44.7622C17.5431 45.3302 17.3591 46.1382 17.3591 47.1862C17.3591 48.2262 17.5431 49.0302 17.9111 49.5982Z" fill="#8E8E8E"/>
<path d="M0.432 91.7722V90.8602L3.396 87.8362C4.188 87.0442 4.584 86.3642 4.584 85.7962C4.584 85.3242 4.44 84.9562 4.152 84.6922C3.864 84.4282 3.512 84.2962 3.096 84.2962C2.304 84.2962 1.728 84.6722 1.368 85.4242L0.432 84.8722C0.696 84.3282 1.06 83.9162 1.524 83.6362C1.996 83.3562 2.516 83.2162 3.084 83.2162C3.788 83.2162 4.4 83.4482 4.92 83.9122C5.44 84.3762 5.7 85.0002 5.7 85.7842C5.7 86.6322 5.2 87.5562 4.2 88.5562L2.052 90.6922H5.856V91.7722H0.432ZM7.78013 91.9042C7.56413 91.9042 7.38013 91.8282 7.22813 91.6762C7.07613 91.5242 7.00013 91.3402 7.00013 91.1242C7.00013 90.9082 7.07613 90.7242 7.22813 90.5722C7.38013 90.4202 7.56413 90.3442 7.78013 90.3442C8.00413 90.3442 8.18813 90.4202 8.33213 90.5722C8.48413 90.7242 8.56013 90.9082 8.56013 91.1242C8.56013 91.3402 8.48413 91.5242 8.33213 91.6762C8.18813 91.8282 8.00413 91.9042 7.78013 91.9042ZM12.4861 86.6482C13.2781 86.6482 13.9461 86.8842 14.4901 87.3562C15.0421 87.8202 15.3181 88.4642 15.3181 89.2882C15.3181 90.1042 15.0381 90.7482 14.4781 91.2202C13.9181 91.6922 13.2381 91.9282 12.4381 91.9282C11.7981 91.9282 11.2261 91.7762 10.7221 91.4722C10.2181 91.1602 9.86609 90.7122 9.66609 90.1282L10.6141 89.5882C10.7261 89.9962 10.9421 90.3082 11.2621 90.5242C11.5821 90.7322 11.9741 90.8362 12.4381 90.8362C12.9661 90.8362 13.3941 90.7002 13.7221 90.4282C14.0501 90.1562 14.2141 89.7762 14.2141 89.2882C14.2141 88.8002 14.0501 88.4202 13.7221 88.1482C13.3941 87.8682 12.9741 87.7282 12.4621 87.7282H10.0861L10.3981 83.3722H14.9941V84.4162H11.4061L11.2621 86.6482H12.4861ZM18.7673 86.6482C19.5593 86.6482 20.2273 86.8842 20.7713 87.3562C21.3233 87.8202 21.5993 88.4642 21.5993 89.2882C21.5993 90.1042 21.3193 90.7482 20.7593 91.2202C20.1993 91.6922 19.5193 91.9282 18.7193 91.9282C18.0793 91.9282 17.5073 91.7762 17.0033 91.4722C16.4993 91.1602 16.1473 90.7122 15.9473 90.1282L16.8953 89.5882C17.0073 89.9962 17.2233 90.3082 17.5433 90.5242C17.8633 90.7322 18.2553 90.8362 18.7193 90.8362C19.2473 90.8362 19.6753 90.7002 20.0033 90.4282C20.3313 90.1562 20.4953 89.7762 20.4953 89.2882C20.4953 88.8002 20.3313 88.4202 20.0033 88.1482C19.6753 87.8682 19.2553 87.7282 18.7433 87.7282H16.3673L16.6793 83.3722H21.2753V84.4162H17.6873L17.5433 86.6482H18.7673Z" fill="#8E8E8E"/>
<path d="M0.432 132.158V131.246L3.396 128.222C4.188 127.43 4.584 126.75 4.584 126.182C4.584 125.71 4.44 125.342 4.152 125.078C3.864 124.814 3.512 124.682 3.096 124.682C2.304 124.682 1.728 125.058 1.368 125.81L0.432 125.258C0.696 124.714 1.06 124.302 1.524 124.022C1.996 123.742 2.516 123.602 3.084 123.602C3.788 123.602 4.4 123.834 4.92 124.298C5.44 124.762 5.7 125.386 5.7 126.17C5.7 127.018 5.2 127.942 4.2 128.942L2.052 131.078H5.856V132.158H0.432ZM7.78013 132.29C7.56413 132.29 7.38013 132.214 7.22813 132.062C7.07613 131.91 7.00013 131.726 7.00013 131.51C7.00013 131.294 7.07613 131.11 7.22813 130.958C7.38013 130.806 7.56413 130.73 7.78013 130.73C8.00413 130.73 8.18813 130.806 8.33213 130.958C8.48413 131.11 8.56013 131.294 8.56013 131.51C8.56013 131.726 8.48413 131.91 8.33213 132.062C8.18813 132.214 8.00413 132.29 7.78013 132.29ZM12.4861 127.034C13.2781 127.034 13.9461 127.27 14.4901 127.742C15.0421 128.206 15.3181 128.85 15.3181 129.674C15.3181 130.49 15.0381 131.134 14.4781 131.606C13.9181 132.078 13.2381 132.314 12.4381 132.314C11.7981 132.314 11.2261 132.162 10.7221 131.858C10.2181 131.546 9.86609 131.098 9.66609 130.514L10.6141 129.974C10.7261 130.382 10.9421 130.694 11.2621 130.91C11.5821 131.118 11.9741 131.222 12.4381 131.222C12.9661 131.222 13.3941 131.086 13.7221 130.814C14.0501 130.542 14.2141 130.162 14.2141 129.674C14.2141 129.186 14.0501 128.806 13.7221 128.534C13.3941 128.254 12.9741 128.114 12.4621 128.114H10.0861L10.3981 123.758H14.9941V124.802H11.4061L11.2621 127.034H12.4861ZM21.7188 131.126C21.1508 131.918 20.3548 132.314 19.3308 132.314C18.3068 132.314 17.5108 131.918 16.9428 131.126C16.3748 130.334 16.0908 129.278 16.0908 127.958C16.0908 126.638 16.3748 125.582 16.9428 124.79C17.5108 123.998 18.3068 123.602 19.3308 123.602C20.3548 123.602 21.1508 123.998 21.7188 124.79C22.2868 125.582 22.5708 126.638 22.5708 127.958C22.5708 129.278 22.2868 130.334 21.7188 131.126ZM17.7588 130.37C18.1268 130.938 18.6508 131.222 19.3308 131.222C20.0108 131.222 20.5348 130.938 20.9028 130.37C21.2788 129.802 21.4668 128.998 21.4668 127.958C21.4668 126.918 21.2788 126.114 20.9028 125.546C20.5348 124.97 20.0108 124.682 19.3308 124.682C18.6508 124.682 18.1268 124.966 17.7588 125.534C17.3908 126.102 17.2068 126.91 17.2068 127.958C17.2068 128.998 17.3908 129.802 17.7588 130.37Z" fill="#8E8E8E"/>
<path d="M0.432 172.544V171.632L3.396 168.608C4.188 167.816 4.584 167.136 4.584 166.568C4.584 166.096 4.44 165.728 4.152 165.464C3.864 165.2 3.512 165.068 3.096 165.068C2.304 165.068 1.728 165.444 1.368 166.196L0.432 165.644C0.696 165.1 1.06 164.688 1.524 164.408C1.996 164.128 2.516 163.988 3.084 163.988C3.788 163.988 4.4 164.22 4.92 164.684C5.44 165.148 5.7 165.772 5.7 166.556C5.7 167.404 5.2 168.328 4.2 169.328L2.052 171.464H5.856V172.544H0.432ZM7.78013 172.676C7.56413 172.676 7.38013 172.6 7.22813 172.448C7.07613 172.296 7.00013 172.112 7.00013 171.896C7.00013 171.68 7.07613 171.496 7.22813 171.344C7.38013 171.192 7.56413 171.116 7.78013 171.116C8.00413 171.116 8.18813 171.192 8.33213 171.344C8.48413 171.496 8.56013 171.68 8.56013 171.896C8.56013 172.112 8.48413 172.296 8.33213 172.448C8.18813 172.6 8.00413 172.676 7.78013 172.676ZM15.9541 169.904V170.948H14.9341V172.544H13.8181V170.948H9.53409V169.904L12.5461 164.144H13.7461L10.7341 169.904H13.8181V167.528H14.9341V169.904H15.9541ZM19.447 167.42C20.239 167.42 20.907 167.656 21.451 168.128C22.003 168.592 22.279 169.236 22.279 170.06C22.279 170.876 21.999 171.52 21.439 171.992C20.879 172.464 20.199 172.7 19.399 172.7C18.759 172.7 18.187 172.548 17.683 172.244C17.179 171.932 16.827 171.484 16.627 170.9L17.575 170.36C17.687 170.768 17.903 171.08 18.223 171.296C18.543 171.504 18.935 171.608 19.399 171.608C19.927 171.608 20.355 171.472 20.683 171.2C21.011 170.928 21.175 170.548 21.175 170.06C21.175 169.572 21.011 169.192 20.683 168.92C20.355 168.64 19.935 168.5 19.423 168.5H17.047L17.359 164.144H21.955V165.188H18.367L18.223 167.42H19.447Z" fill="#8E8E8E"/>
<path d="M47.867 186.495H48.987V196.295H47.699V187.895L45.613 188.511L45.291 187.391L47.867 186.495Z" fill="#8E8E8E"/>
<path d="M109.544 196.295V195.231L113.002 191.703C113.926 190.779 114.388 189.986 114.388 189.323C114.388 188.772 114.22 188.343 113.884 188.035C113.548 187.727 113.137 187.573 112.652 187.573C111.728 187.573 111.056 188.012 110.636 188.889L109.544 188.245C109.852 187.61 110.277 187.13 110.818 186.803C111.369 186.476 111.975 186.313 112.638 186.313C113.459 186.313 114.173 186.584 114.78 187.125C115.387 187.666 115.69 188.394 115.69 189.309C115.69 190.298 115.107 191.376 113.94 192.543L111.434 195.035H115.872V196.295H109.544Z" fill="#8E8E8E"/>
<path d="M177.409 190.513C178.156 190.653 178.767 190.975 179.243 191.479C179.719 191.983 179.957 192.622 179.957 193.397C179.957 194.349 179.631 195.1 178.977 195.651C178.324 196.202 177.531 196.477 176.597 196.477C175.851 196.477 175.188 196.309 174.609 195.973C174.031 195.628 173.62 195.133 173.377 194.489L174.469 193.845C174.759 194.75 175.468 195.203 176.597 195.203C177.204 195.203 177.699 195.044 178.081 194.727C178.464 194.41 178.655 193.966 178.655 193.397C178.655 192.828 178.464 192.384 178.081 192.067C177.699 191.74 177.204 191.577 176.597 191.577H176.261L175.743 190.779L178.011 187.713H173.657V186.495H179.537V187.643L177.409 190.513Z" fill="#8E8E8E"/>
<path d="M244.755 193.215V194.433H243.565V196.295H242.263V194.433H237.265V193.215L240.779 186.495H242.179L238.665 193.215H242.263V190.443H243.565V193.215H244.755Z" fill="#8E8E8E"/>
<path d="M303.532 190.317C304.456 190.317 305.236 190.592 305.87 191.143C306.514 191.684 306.836 192.436 306.836 193.397C306.836 194.349 306.51 195.1 305.856 195.651C305.203 196.202 304.41 196.477 303.476 196.477C302.73 196.477 302.062 196.3 301.474 195.945C300.886 195.581 300.476 195.058 300.242 194.377L301.348 193.747C301.479 194.223 301.731 194.587 302.104 194.839C302.478 195.082 302.935 195.203 303.476 195.203C304.092 195.203 304.592 195.044 304.974 194.727C305.357 194.41 305.548 193.966 305.548 193.397C305.548 192.828 305.357 192.384 304.974 192.067C304.592 191.74 304.102 191.577 303.504 191.577H300.732L301.096 186.495H306.458V187.713H302.272L302.104 190.317H303.532Z" fill="#8E8E8E"/>
<path d="M366.903 189.883C367.883 189.883 368.69 190.191 369.325 190.807C369.959 191.414 370.277 192.202 370.277 193.173C370.277 194.144 369.959 194.937 369.325 195.553C368.69 196.169 367.883 196.477 366.903 196.477C365.913 196.477 365.101 196.169 364.467 195.553C363.841 194.937 363.529 194.144 363.529 193.173C363.529 192.417 363.725 191.764 364.117 191.213L367.267 186.495H368.751L366.441 189.911C366.646 189.892 366.8 189.883 366.903 189.883ZM365.391 194.671C365.783 195.044 366.287 195.231 366.903 195.231C367.519 195.231 368.018 195.044 368.401 194.671C368.793 194.288 368.989 193.789 368.989 193.173C368.989 192.557 368.793 192.062 368.401 191.689C368.018 191.316 367.519 191.129 366.903 191.129C366.277 191.129 365.773 191.316 365.391 191.689C365.008 192.062 364.817 192.557 364.817 193.173C364.817 193.789 365.008 194.288 365.391 194.671Z" fill="#8E8E8E"/>
<path d="M423.968 186.495H430.086V187.657L426.516 196.295H425.158L428.7 187.727H423.968V186.495Z" fill="#8E8E8E"/>
</svg>
