<?xml version="1.0" standalone="no"?>
<!DOCTYPE svg PUBLIC "-//W3C//DTD SVG 20010904//EN"
 "http://www.w3.org/TR/2001/REC-SVG-20010904/DTD/svg10.dtd">
<svg version="1.0" xmlns="http://www.w3.org/2000/svg"
 width="1370.000000pt" height="386.000000pt" viewBox="0 0 1370.000000 386.000000"
 preserveAspectRatio="xMidYMid meet">

<g transform="translate(0.000000,386.000000) scale(0.100000,-0.100000)"
fill="#000000" stroke="none">
<path d="M1330 2000 l0 -640 340 0 340 0 0 40 0 40 -295 0 -295 0 0 600 0 600
-45 0 -45 0 0 -640z"/>
<path d="M5340 2000 l0 -640 45 0 45 0 0 330 0 330 260 0 260 0 0 35 0 35
-257 2 -258 3 -3 233 -2 232 285 0 285 0 0 40 0 40 -330 0 -330 0 0 -640z"/>
<path d="M11070 2524 c-107 -23 -198 -74 -274 -154 -102 -108 -151 -221 -162
-375 -18 -226 79 -427 264 -548 132 -87 255 -114 443 -96 95 9 237 44 256 63
3 3 0 19 -7 36 -9 22 -17 29 -29 25 -52 -21 -176 -46 -255 -51 -177 -12 -311
37 -430 159 -134 136 -180 296 -141 482 39 182 162 325 326 376 98 31 272 23
439 -20 l69 -17 11 29 c5 17 10 33 10 38 0 11 -161 47 -265 59 -116 13 -175
12 -255 -6z"/>
<path d="M3675 1954 c-132 -317 -241 -580 -243 -585 -2 -5 16 -9 41 -9 l44 0
83 200 82 200 256 -2 255 -3 82 -195 81 -195 49 -3 c42 -3 47 -1 41 15 -3 10
-113 273 -244 585 -225 540 -238 568 -262 568 -25 0 -38 -28 -265 -576z m374
151 c60 -143 106 -263 104 -267 -7 -13 -433 -10 -433 3 0 6 42 112 94 237 51
125 99 245 106 267 8 22 15 36 17 30 2 -5 52 -127 112 -270z"/>
<path d="M6810 1946 l0 -586 45 0 45 0 2 491 3 491 42 -52 c24 -29 217 -252
429 -496 249 -285 394 -444 406 -444 17 0 18 23 18 585 l0 585 -40 0 -40 0 -2
-495 -3 -494 -55 67 c-30 37 -223 260 -429 497 -269 310 -380 431 -397 433
l-24 3 0 -585z"/>
<path d="M8285 1954 c-132 -317 -241 -580 -243 -585 -2 -5 16 -9 41 -9 l44 0
83 200 82 200 256 -2 255 -3 82 -195 81 -195 49 -3 c42 -3 47 -1 41 15 -3 10
-113 273 -244 585 -225 540 -238 568 -262 568 -25 0 -38 -28 -265 -576z m374
151 c60 -143 106 -263 104 -267 -7 -13 -433 -10 -433 3 0 6 42 112 94 237 51
125 99 245 106 267 8 22 15 36 17 30 2 -5 52 -127 112 -270z"/>
<path d="M9290 1946 l0 -586 45 0 45 0 2 491 3 491 42 -52 c24 -29 217 -252
429 -496 249 -285 394 -444 406 -444 17 0 18 23 18 585 l0 585 -40 0 -40 0 -2
-495 -3 -494 -55 67 c-30 37 -223 260 -429 497 -269 310 -380 431 -397 433
l-24 3 0 -585z"/>
<path d="M2260 1940 l0 -580 45 0 45 0 0 580 0 580 -45 0 -45 0 0 -580z"/>
<path d="M2770 1940 l0 -580 310 0 310 0 0 40 0 40 -265 0 -265 0 0 540 0 540
-45 0 -45 0 0 -580z"/>
<path d="M6300 1940 l0 -580 45 0 45 0 0 580 0 580 -45 0 -45 0 0 -580z"/>
<path d="M11890 1940 l0 -580 280 0 280 0 0 40 0 40 -235 0 -235 0 0 260 0
260 205 0 205 0 0 35 0 35 -205 0 -205 0 0 210 0 210 225 0 225 0 0 35 0 35
-270 0 -270 0 0 -580z"/>
</g>
</svg>
